HD DESI ROCKERS GROUP RELEASES


INFO:

Title..................: Mission Impossible 2
Year...................: 2000 
Genre..................: Action | Thriller
Directer...............: John Woo
Run time...............: 1h 58mn 29sec
size ..................: 993 MB
Languages..............: English.Hindi

___________________________________________________________________________

Video

Format                           : MKV
Duration                         : 1h 58mn 29sec
Display aspect ratio             : 16:9
Resolution                       : 648*276
Stream size                      : 724 MiB 
_______________________________________________________________________________


Audio #1 :English
ID                               : 1
Format                           : AC-3
Duration                         : 1h 58mn 29sec
Bit rate mode                    : Constant
Bit rate                         : 192 Kbps
Channel(s)                       : 6 channels
Channel positions                : Front: L C R, Side: L R, LFE
Sampling rate                    : 48.0 KHz
Stream size                      : 163 MiB 

____________________________________________________________________________


Audio #2 :Hindi
ID                               : 2
Format                           : MPEG 4 Layer 0 
Duration                         : 1h 58mn 29sec
Bit rate mode                    : Constant
Bit rate                         : 128 Kbps
Channel(s)                       : 2 channels
Channel positions                : Front: L R
Sampling rate                    : 48 Hz
Stream size                      : 104 MiB
__________________________________________________________________________



Seeding at 2:00 AM ISt - 8:00 AM ISt
Please wait during seeding
Plz seed after download
Thankyou...

Screens
 
http://img684.imageshack.us/img684/6595/15182724.jpg 
http://img193.imageshack.us/img193/1725/13368637.jpg 
http://img406.imageshack.us/img406/1984/27973412.jpg 
http://img9.imageshack.us/img9/2742/52091426.jpg 
http://img98.imageshack.us/img98/6651/51270266.jpg